<svg width="29" height="29" viewBox="0 0 29 29" fill="none" xmlns="http://www.w3.org/2000/svg">
<path d="M24.1668 16.7186V14.7853C24.1668 14.2725 23.9631 13.7808 23.6005 13.4182C23.238 13.0556 22.7462 12.852 22.2335 12.852H2.90013C2.38738 12.852 1.89563 13.0556 1.53306 13.4182C1.17049 13.7808 0.966797 14.2725 0.966797 14.7853V26.3853C0.966797 26.898 1.17049 27.3898 1.53306 27.7524C1.89563 28.1149 2.38738 28.3186 2.90013 28.3186H22.2335C22.7462 28.3186 23.238 28.1149 23.6005 27.7524C23.9631 27.3898 24.1668 26.898 24.1668 26.3853V24.452M24.1668 16.7186H16.4335C15.408 16.7186 14.4245 17.126 13.6993 17.8511C12.9742 18.5763 12.5668 19.5598 12.5668 20.5853C12.5668 21.6108 12.9742 22.5943 13.6993 23.3194C14.4245 24.0446 15.408 24.452 16.4335 24.452H24.1668M24.1668 16.7186C25.1923 16.7186 26.1758 17.126 26.9009 17.8511C27.6261 18.5763 28.0335 19.5598 28.0335 20.5853C28.0335 21.6108 27.6261 22.5943 26.9009 23.3194C26.1758 24.0446 25.1923 24.452 24.1668 24.452M6.7668 12.852V7.05195C6.7668 5.5137 7.37787 4.03844 8.46558 2.95073C9.55329 1.86302 11.0285 1.25195 12.5668 1.25195C14.1051 1.25195 15.5803 1.86302 16.668 2.95073C17.7557 4.03844 18.3668 5.5137 18.3668 7.05195V12.852M23.2001 20.5853H25.1335M19.3335 20.5853H21.2668M15.4668 20.5853H17.4001" stroke="black"/>
</svg>
