<svg width="30" height="31" viewBox="0 0 30 31" fill="none" xmlns="http://www.w3.org/2000/svg">
<path d="M6.25 6.53516H22.5C23.4946 6.53516 24.4484 6.93024 25.1517 7.63351C25.8549 8.33677 26.25 9.29059 26.25 10.2852V21.5352C26.25 22.5297 25.8549 23.4835 25.1517 24.1868C24.4484 24.8901 23.4946 25.2852 22.5 25.2852H6.25C5.25544 25.2852 4.30161 24.8901 3.59835 24.1868C2.89509 23.4835 2.5 22.5297 2.5 21.5352V10.2852C2.5 9.29059 2.89509 8.33677 3.59835 7.63351C4.30161 6.93024 5.25544 6.53516 6.25 6.53516ZM6.25 7.78516C5.625 7.78516 5.075 7.99766 4.65 8.37266L14.375 14.6602L24.1 8.37266C23.675 7.99766 23.125 7.78516 22.5 7.78516H6.25ZM14.375 16.1727L3.9125 9.38516C3.8125 9.66016 3.75 9.97266 3.75 10.2852V21.5352C3.75 22.1982 4.01339 22.8341 4.48223 23.3029C4.95107 23.7718 5.58696 24.0352 6.25 24.0352H22.5C23.163 24.0352 23.7989 23.7718 24.2678 23.3029C24.7366 22.8341 25 22.1982 25 21.5352V10.2852C25 9.97266 24.9375 9.66016 24.8375 9.38516L14.375 16.1727Z" fill="black"/>
</svg>
