<svg width="24" height="25" viewBox="0 0 24 25" fill="none" xmlns="http://www.w3.org/2000/svg">
<path fill-rule="evenodd" clip-rule="evenodd" d="M12.0001 2.03516C10.7403 2.03516 9.5321 2.5356 8.6413 3.4264C7.7505 4.3172 7.25006 5.52538 7.25006 6.78516C7.25006 8.04493 7.7505 9.25312 8.6413 10.1439C9.5321 11.0347 10.7403 11.5352 12.0001 11.5352C13.2598 11.5352 14.468 11.0347 15.3588 10.1439C16.2496 9.25312 16.7501 8.04493 16.7501 6.78516C16.7501 5.52538 16.2496 4.3172 15.3588 3.4264C14.468 2.5356 13.2598 2.03516 12.0001 2.03516ZM8.75006 6.78516C8.75006 5.9232 9.09247 5.09655 9.70196 4.48706C10.3115 3.87757 11.1381 3.53516 12.0001 3.53516C12.862 3.53516 13.6887 3.87757 14.2982 4.48706C14.9076 5.09655 15.2501 5.9232 15.2501 6.78516C15.2501 7.64711 14.9076 8.47376 14.2982 9.08325C13.6887 9.69275 12.862 10.0352 12.0001 10.0352C11.1381 10.0352 10.3115 9.69275 9.70196 9.08325C9.09247 8.47376 8.75006 7.64711 8.75006 6.78516ZM12.0001 13.0352C9.68706 13.0352 7.55506 13.5612 5.97606 14.4492C4.42006 15.3252 3.25006 16.6512 3.25006 18.2852V18.3872C3.24906 19.5492 3.24806 21.0072 4.52706 22.0492C5.15606 22.5612 6.03706 22.9262 7.22706 23.1662C8.41906 23.4082 9.97406 23.5352 12.0001 23.5352C14.0261 23.5352 15.5801 23.4082 16.7741 23.1662C17.9641 22.9262 18.8441 22.5612 19.4741 22.0492C20.7531 21.0072 20.7511 19.5492 20.7501 18.3872V18.2852C20.7501 16.6512 19.5801 15.3252 18.0251 14.4492C16.4451 13.5612 14.3141 13.0352 12.0001 13.0352ZM4.75006 18.2852C4.75006 17.4342 5.37206 16.5102 6.71106 15.7572C8.02706 15.0172 9.89506 14.5352 12.0011 14.5352C14.1051 14.5352 15.9731 15.0172 17.2891 15.7572C18.6291 16.5102 19.2501 17.4342 19.2501 18.2852C19.2501 19.5932 19.2101 20.3292 18.5261 20.8852C18.1561 21.1872 17.5361 21.4822 16.4761 21.6962C15.4191 21.9102 13.9741 22.0352 12.0001 22.0352C10.0261 22.0352 8.58006 21.9102 7.52406 21.6962C6.46406 21.4822 5.84406 21.1872 5.47406 20.8862C4.79006 20.3292 4.75006 19.5932 4.75006 18.2852Z" fill="black"/>
</svg>
